# xmcd
#
# Track frame offsets:
#	150
#	16607
#	30501
#	49216
#	64839
#	81102
#	97512
#	113165
#	127829
#	144892
#
# Disc length: 2171 seconds
#
# Revision: 1
# Processed by: cddbd v1.5.1PL0 Copyright (c) Steve Scherf et al.
# Submitted via: audiograbber 1.83.01
#
DISCID=6a08790a
DTITLE=MARCONE MACIEL - TERRA, MAR E AR
DYEAR=1900
DGENRE=SERTANEJO
TTITLE0=CORAÇÃO SONHADOR
TTITLE1=A NOTÍCIA
TTITLE2=RETINAS
TTITLE3=TERRA, MAR E AR
TTITLE4=AMOR DE BUMBA MEU BOI
TTITLE5=FESTA DE JANEIRO
TTITLE6=BEIJA-FLOR
TTITLE7=A NOITE E OS SONHOS
TTITLE8=JOÃO BRASILEIRO
TTITLE9=SETE LÉGUAS DE SAUDADE
EXTD=
EXTT0=
EXTT1=
EXTT2=
EXTT3=
EXTT4=
EXTT5=
EXTT6=
EXTT7=
EXTT8=
EXTT9=
PLAYORDER=
